<?xml version="1.0" standalone="no"?>
<!DOCTYPE svg PUBLIC "-//W3C//DTD SVG 20010904//EN"
 "http://www.w3.org/TR/2001/REC-SVG-20010904/DTD/svg10.dtd">
<svg version="1.0" xmlns="http://www.w3.org/2000/svg"
 width="290.000000pt" height="290.000000pt" viewBox="0 0 290.000000 290.000000"
 preserveAspectRatio="xMidYMid meet">
<metadata>
Created by potrace 1.14, written by Peter Selinger 2001-2017
</metadata>
<g transform="translate(0.000000,290.000000) scale(0.100000,-0.100000)"
fill="#000000" stroke="none">
<path d="M659 1803 c0 -362 -2 -672 -4 -688 -16 -152 -126 -318 -265 -399 -59
-35 -174 -76 -212 -76 -22 0 -53 -61 -36 -71 10 -6 124 13 163 27 207 75 346
225 404 434 20 69 20 104 21 751 l0 679 -35 0 -35 0 -1 -657z"/>
<path d="M1446 2180 c-315 -66 -587 -353 -632 -665 -25 -174 0 -343 74 -490
225 -453 780 -598 1199 -314 26 18 81 66 122 108 l75 76 -47 3 c-42 3 -49 0
-85 -36 -368 -368 -977 -265 -1203 203 -208 430 52 949 522 1045 392 81 776
-163 873 -554 19 -74 26 -208 15 -268 l-6 -38 38 0 c35 0 39 3 41 28 9 176 -2
267 -48 390 -92 245 -309 440 -565 507 -95 26 -264 28 -373 5z"/>
<path d="M1754 1083 c1 -95 4 -99 62 -89 60 12 91 71 68 131 -9 22 -57 45 -97
45 l-33 0 0 -87z m94 51 c15 -10 22 -25 22 -48 0 -44 -18 -65 -61 -72 l-35 -6
-2 71 -2 71 28 0 c15 0 38 -7 50 -16z"/>
<path d="M1981 1133 c-8 -21 -22 -56 -32 -77 -21 -43 -24 -66 -10 -66 5 0 12
14 16 30 7 30 9 32 45 32 35 0 38 -1 49 -32 5 -16 15 -30 20 -30 6 0 1 23 -10
53 -12 28 -28 69 -37 90 -8 20 -18 37 -22 37 -3 0 -12 -17 -19 -37z m38 -50
c1 -7 -8 -13 -19 -13 -23 0 -23 0 -9 37 10 26 12 27 19 8 5 -11 9 -26 9 -32z"/>
<path d="M2129 1145 c0 -14 0 -47 0 -75 0 -76 0 -80 11 -80 6 0 10 16 10 35 0
27 4 35 18 35 10 0 26 -15 36 -35 11 -19 25 -35 33 -35 15 0 9 16 -20 54 -12
17 -12 22 -1 34 36 35 0 92 -58 92 -23 0 -28 -4 -29 -25z m74 -17 c13 -20 -6
-48 -34 -48 -15 0 -19 7 -19 36 0 31 3 35 21 32 12 -2 27 -10 32 -20z"/>
<path d="M2300 1080 l0 -90 55 0 c30 0 55 5 55 10 0 6 -20 10 -45 10 l-45 0
-1 58 c-1 31 0 67 1 80 1 12 -3 22 -9 22 -7 0 -11 -33 -11 -90z"/>
<path d="M2463 1083 l2 -88 58 -3 c35 -2 57 1 57 8 0 5 -22 10 -50 10 -49 0
-50 1 -50 30 0 28 2 30 39 30 22 0 43 5 46 10 4 6 -12 10 -39 10 -44 0 -46 1
-46 30 0 29 2 30 44 30 25 0 48 5 51 10 4 6 -16 10 -54 10 l-60 0 2 -87z"/>
<path d="M2620 1164 c0 -3 14 -31 30 -61 17 -30 30 -68 30 -84 0 -18 4 -28 10
-24 6 3 10 18 10 32 0 15 14 50 30 80 33 58 35 63 20 63 -6 0 -20 -20 -32 -45
-12 -25 -25 -45 -28 -45 -3 0 -16 20 -28 45 -12 25 -26 45 -32 45 -5 0 -10 -3
-10 -6z"/>
</g>
</svg>
